<?xml version="1.0" encoding="utf-8"?>
<!-- Generator: Adobe Illustrator 26.2.1, SVG Export Plug-In . SVG Version: 6.00 Build 0)  -->
<svg version="1.1" id="Camada_1" xmlns="http://www.w3.org/2000/svg" xmlns:xlink="http://www.w3.org/1999/xlink" x="0px" y="0px"
	 viewBox="0 0 514.8 101" style="enable-background:new 0 0 514.8 101;" xml:space="preserve">
<style type="text/css">
	.st0{fill:#98C73A;}
	.st1{fill:#C9CEBE;}
</style>
<g id="a">
</g>
<g id="b">
	<g id="c">
		<path class="st0" d="M21,22.2C7,26-1.4,38.7,0.2,53.7c1.4,13.3,13.2,24,27.1,24.6c5.4,0.2,10.8,0,16.9,0
			c-4.7,9.8-12.5,11.2-21.3,10.9v10.5c13.7,2.2,26.6-3.4,30.9-15.6c5.3-15,5.2-31,0.3-46C49.7,24.7,34.7,18.5,21,22.2z M45.8,67.1
			c-6.4,0-12,0.3-17.6-0.1c-9.7-0.7-16.8-8.8-16.2-18c0.6-9.4,8.2-16.6,17.3-16.5c9.2,0.2,16.4,7.8,16.5,17.7
			C45.8,55.7,45.8,61.2,45.8,67.1L45.8,67.1z"/>
		<path class="st1" d="M295.8,22.2c-13.8,0.9-25.2,13.5-25.3,28c-0.1,15.5,0,31,0,46.5c0,1.4,0.2,2.9,0.3,4.3H282V78.2
			c6.3,0,11.8,0,17.3,0c2,0,4-0.1,5.9-0.5c14.4-3.3,24.1-17.1,22-31.2C324.9,31.2,312,21.2,295.8,22.2L295.8,22.2z M303.6,66.4
			c-1.3,0.4-2.6,0.7-3.9,0.7c-5.6,0.1-11.2,0-17.5,0c0-6.5-0.3-12.5,0.1-18.5c0.6-8.6,7.8-15,16.3-15.1c8.1-0.1,15.5,5.8,16.9,13.5
			C317,55.8,312,63.9,303.6,66.4L303.6,66.4z"/>
		<path class="st1" d="M483.7,65.1c10.6-10.6,20.8-20.6,31-30.8c-10.8-12.3-23.1-15.7-35.6-10.1c-11.3,5-18,16.6-16.6,29.1
			c1.3,12.1,10,21.9,22.1,24.7c11.4,2.6,24.2-2.6,29.3-11.4c-2.6-2.8-5-5.4-7.7-8.2C500.4,64.7,493.9,69.6,483.7,65.1L483.7,65.1z
			 M478.3,38.8c4.9-5.5,11.2-6.8,20.3-3.5c-7.6,7.7-14.8,14.9-22.6,22.8C472.5,49.7,473.7,43.9,478.3,38.8L478.3,38.8z"/>
		<path class="st0" d="M171.9,23.4c-11.6,4.2-18.8,15.3-18.4,28c0.4,11.9,8.6,22.5,20,25.9c12,3.6,24.5-0.8,32.1-11.4
			c-2.5-2.5-5-5.1-7.8-8c-6.1,6.6-12.6,11.8-22.9,7.2c10.7-10.4,21-20.5,31.3-30.4C196.4,22.6,184.3,18.8,171.9,23.4L171.9,23.4z
			 M166.6,56.3c-2.8-6.7-1.7-13.1,3.2-17.9c5.2-5.2,11.4-6.4,17.6-4C180.7,41.5,173.8,48.8,166.6,56.3L166.6,56.3z"/>
		<path class="st0" d="M149.9,34.5C141.1,23,128.9,19,116.6,23.2c-11.6,4-19.1,14.6-19,27.1c0.1,12.3,7.9,23,19.4,26.8
			c12,3.9,24.6-0.3,32.7-11.2c-2.6-2.5-5.1-5-8-7.9c-5.8,6.3-12.3,11.6-23,6.9c5.6-5.4,10.7-10.3,15.7-15.2
			C139.6,44.7,144.8,39.5,149.9,34.5L149.9,34.5z M110.4,56.6c-2.8-7.2-1.4-13.1,3.5-18.3c4.9-5.2,11.2-6.3,17.7-3.8
			C124.8,41.6,117.9,48.8,110.4,56.6L110.4,56.6z"/>
		<path class="st1" d="M372.9,21.3c-14.2,0.3-26.2,12.6-26.6,27.2c-0.4,15.4,10.7,28.9,25,29.7c10.3,0.6,20.6,0.1,31.8,0.1
			c0-9.6,0-18.7,0-27.8C402.9,32.9,390.5,20.9,372.9,21.3L372.9,21.3z M391.4,67.1c-6.5,0-12.5,0.4-18.4-0.1
			c-9.3-0.9-16-9.3-15.3-18.3c0.8-9.4,8.5-16.4,17.6-16.1c9,0.3,16,7.9,16,17.6C391.4,55.6,391.4,61.1,391.4,67.1L391.4,67.1z"/>
		<path class="st0" d="M239.4,22.3c-14.9-0.3-27.6,8.4-29.3,22.3c-1.4,10.9-0.3,22.1-0.3,33.4h10.9c0-8.9-0.1-17.4,0-25.9
			c0.1-7.1,2.5-13.1,9.1-16.6c11.1-6,24.4,1.8,24.7,14.6c0.2,9.3,0,18.5,0,28.9h11.3c0-11.9,0.8-22.6-0.2-33.1
			C264.3,32.5,252.5,22.6,239.4,22.3L239.4,22.3z"/>
		<path class="st1" d="M431.1,33.5c7.9-2.1,13.5,3.1,18.7,8.4c2.9-2.8,5.5-5.3,8-7.8c-8.8-11.3-21.3-15.3-33.4-11
			c-11.9,4.2-19.1,14.8-18.9,27.6c0.2,12,8.2,22.7,19.5,26.3c12.2,3.9,24.8-0.5,32.5-11.2c-2.5-2.5-5.1-5-7.6-7.6
			c-12.3,10-20.6,11-28,3.5c-6.1-6.2-6.9-16.1-1.1-22.1C423.4,36.8,427.3,34.5,431.1,33.5L431.1,33.5z"/>
		<path class="st1" d="M331,78h11V0h-11V78z"/>
		<path class="st0" d="M60.7,44.6c-1.1,11-0.2,22.1-0.2,33.4h11.4c0-9.3,0-18.1,0-26.8c0.1-11.8,6.5-18.4,18.4-18.9
			c1.3,0,2.5-0.2,3.7-0.3V21.5C75.1,18.8,62.1,31.5,60.7,44.6L60.7,44.6z"/>
	</g>
</g>
</svg>
